PathFileType	4	(X/Y/Z)	./resultDataOpenSim/trcMotMarkerGrf/sub06/qtm-04-04.trc
DataRate	CameraRate	NumFrames	NumMarkers	Units	OrigDataRate	OrigDataStartFrame	OrigNumFrames
250.000000	250.000000	14	24	m	250.000000	68	536
Frame#	Time	L.Toe.Tip			R.Toe.Tip			L.Ankle.Lat			R.Ankle.Lat			L.Ankle.Med			R.Ankle.Med			L.Heel			R.Heel			L.Knee.Lat			R.Knee.Lat			L.Knee.Med			R.Knee.Med			L.Thigh.Upper			R.Thigh.Upper			L.ASIS			R.ASIS			V.Sacral			L.Acromium			R.Acromium			C7			L.Elbow			R.Elbow			L.Wrist.Lat			R.Wrist.Lat
		X1	Y1	Z1	X2	Y2	Z2	X3	Y3	Z3	X4	Y4	Z4	X5	Y5	Z5	X6	Y6	Z6	X7	Y7	Z7	X8	Y8	Z8	X9	Y9	Z9	X10	Y10	Z10	X11	Y11	Z11	X12	Y12	Z12	X13	Y13	Z13	X14	Y14	Z14	X15	Y15	Z15	X16	Y16	Z16	X17	Y17	Z17	X18	Y18	Z18	X19	Y19	Z19	X20	Y20	Z20	X21	Y21	Z21	X22	Y22	Z22	X23	Y23	Z23	X24	Y24	Z24

68	0.268	-1.1158402	0.074288791	-0.06206939	-0.74360974	0.035694727	0.101502	-1.1477548	0.19900988	-0.086171284	-0.87634347	0.062147397	0.13103795	-1.1279374	0.20671289	-0.0058333955	-0.86214222	0.083047668	0.044025469	-1.2066807	0.24326261	-0.03690999	-0.93565806	0.042208263	0.071872831	-0.83650499	0.40517051	-0.11888525	-0.79466043	0.44070847	0.16851706	-0.82437108	0.39304273	0.0027394182	-0.82749364	0.43253807	0.039732444	-0.92310023	0.79274712	-0.11457073	-0.9010265	0.80296711	0.22592214	-0.84549441	0.84048986	-0.080195547	-0.8120679	0.8527505	0.16469847	-1.012531	0.9255449	0.067959685	-0.89508636	1.3306053	-0.12867878	-0.87521666	1.3162193	0.23308052	-0.95964687	1.3653349	0.055997099	-0.91309517	1.0080982	-0.18372601	-0.97071495	1.0147694	0.29826132	-0.72383203	0.84760588	-0.18141647	-0.83878193	0.81193687	0.33089374
69	0.272	-1.0966611	0.073574275	-0.06181798	-0.74359865	0.03569169	0.10157148	-1.1326061	0.19700355	-0.085176004	-0.87646707	0.062157078	0.1309782	-1.1128961	0.20509498	-0.0048860077	-0.86203449	0.083331502	0.044111193	-1.1930292	0.23953883	-0.035486768	-0.93562432	0.04248499	0.071755103	-0.8249638	0.40836782	-0.11828665	-0.79386453	0.44085132	0.16826593	-0.81289649	0.39658194	0.0033737662	-0.82663577	0.43302413	0.039999225	-0.91700517	0.79498856	-0.11473261	-0.89702389	0.80457352	0.22530308	-0.84004235	0.84248019	-0.079881644	-0.80694837	0.85447797	0.16533139	-1.0074801	0.92723761	0.067911681	-0.88992804	1.3325217	-0.12858459	-0.8690962	1.318322	0.23296258	-0.95403666	1.3671515	0.056259358	-0.91020954	1.010266	-0.18318302	-0.96336408	1.0164919	0.29909512	-0.72233559	0.8481126	-0.18218968	-0.82898375	0.8149531	0.33086508
70	0.276	-1.0771822	0.072906685	-0.061580389	-0.74358777	0.035692036	0.10164842	-1.1173422	0.19483934	-0.084192517	-0.87656284	0.062233297	0.13094973	-1.0978062	0.20328926	-0.0038832421	-0.86191755	0.083631746	0.044201487	-1.1792256	0.23553563	-0.034260136	-0.93558526	0.042774781	0.071628074	-0.81351666	0.41159704	-0.11760262	-0.79308495	0.44101007	0.16798715	-0.80171431	0.40020716	0.004023614	-0.82570788	0.43351126	0.040279738	-0.91091304	0.7972413	-0.11518644	-0.89199466	0.8057727	0.2246707	-0.83456605	0.84450703	-0.079512868	-0.80170193	0.8561935	0.165984	-1.0024187	0.9289439	0.067832233	-0.88476113	1.3343986	-0.12848086	-0.86300136	1.3204026	0.23284009	-0.94844254	1.3689368	0.056490307	-0.90735901	1.0124228	-0.18275121	-0.95597436	1.0182272	0.29999923	-0.720873	0.84862226	-0.18297613	-0.81918402	0.81801519	0.33081547
71	0.28	-1.0575558	0.072234	-0.06132385	-0.74357666	0.035693867	0.10172663	-1.1019319	0.1925259	-0.083231359	-0.87657684	0.062410331	0.13096018	-1.0825457	0.20130247	-0.002856251	-0.86178205	0.083951334	0.044293263	-1.1651397	0.23121521	-0.033345504	-0.93553157	0.043090863	0.071507108	-0.80216127	0.41484743	-0.11682609	-0.79232082	0.44118441	0.16768794	-0.79064134	0.4039818	0.0047486826	-0.82510903	0.43390326	0.040519864	-0.90468274	0.79947708	-0.11584331	-0.88638199	0.80670466	0.22413284	-0.82892726	0.84660455	-0.079030793	-0.79630909	0.85790529	0.16665793	-0.99719416	0.93066556	0.067753054	-0.87959064	1.3362345	-0.12837466	-0.85694177	1.3224627	0.2327219	-0.94285964	1.3706869	0.056694218	-0.90453028	1.0145698	-0.18238839	-0.94867353	1.0199785	0.30101557	-0.71944469	0.84912748	-0.18377612	-0.80936735	0.82111323	0.33075008
72	0.284	-1.0379373	0.071499461	-0.061040041	-0.74357183	0.035688873	0.10180651	-1.0863011	0.19005432	-0.082317846	-0.87651067	0.062687352	0.13100756	-1.0668581	0.19918749	-0.0018659762	-0.86161892	0.084287263	0.044381839	-1.1507771	0.22663091	-0.032559539	-0.93543349	0.043467028	0.071378054	-0.79089109	0.41811638	-0.11597767	-0.79157128	0.44137405	0.16737549	-0.77962107	0.40790355	0.0055950795	-0.82506453	0.43413977	0.040676992	-0.89819191	0.80167693	-0.11643501	-0.88069508	0.80758959	0.22366588	-0.82303383	0.84879458	-0.078435809	-0.79079337	0.85962314	0.16731819	-0.99179123	0.93241039	0.067644535	-0.87441771	1.3380328	-0.12827216	-0.85092049	1.3244961	0.23261022	-0.93729028	1.372398	0.056876385	-0.90171066	1.0166986	-0.18205881	-0.94161379	1.0217761	0.30230862	-0.71806005	0.84961576	-0.18458651	-0.7995464	0.82424151	0.33067064
73	0.288	-1.0183732	0.070692002	-0.060732792	-0.74358603	0.035663899	0.10189458	-1.0703567	0.18739929	-0.081488742	-0.87639182	0.063046179	0.13108292	-1.0505645	0.1970151	-0.00097983857	-0.86142373	0.08463202	0.044463221	-1.136242	0.2218732	-0.031565932	-0.93524078	0.043934643	0.071189158	-0.77971764	0.42140788	-0.11509433	-0.79083545	0.44157868	0.16705702	-0.76874194	0.41191818	0.0065389065	-0.82539561	0.43428345	0.040734369	-0.89146964	0.80385831	-0.11673438	-0.8752252	0.80855017	0.22323483	-0.81688792	0.85107028	-0.077770584	-0.78522884	0.86133902	0.16791936	-0.98631536	0.93415563	0.067423678	-0.86923891	1.3397909	-0.1281749	-0.84494244	1.3264922	0.23250636	-0.93173944	1.3740701	0.057035951	-0.89889159	1.0187947	-0.18174256	-0.93486555	1.0236366	0.30398503	-0.71673211	0.85007684	-0.18540966	-0.78974407	0.82739563	0.33057365
74	0.292	-0.99881012	0.069848724	-0.06041766	-0.74362433	0.035614174	0.10199512	-1.0541001	0.18454657	-0.080744556	-0.87625953	0.063438371	0.13115724	-1.0339043	0.19480388	-0.00021183493	-0.86121075	0.084973922	0.044535292	-1.1215449	0.2169669	-0.030190156	-0.93492107	0.044485374	0.07088449	-0.76866476	0.4247218	-0.11419622	-0.7901125	0.44179804	0.16673975	-0.7580829	0.41598043	0.0075401207	-0.82579878	0.43447108	0.040672582	-0.88469596	0.80605778	-0.11680162	-0.8700703	0.80957517	0.2228614	-0.81062305	0.85338067	-0.07709407	-0.77973374	0.8630123	0.1684447	-0.98087288	0.93584845	0.067022719	-0.86405	1.3415027	-0.1280849	-0.83901617	1.3284445	0.23240966	-0.9262079	1.3757001	0.057169569	-0.89607058	1.0208482	-0.1814349	-0.9282638	1.0255043	0.30585219	-0.71546289	0.85050643	-0.18625389	-0.77998338	0.83056654	0.33045442
75	0.296	-0.97917373	0.069028291	-0.0601202	-0.74366895	0.035558401	0.10210437	-1.037705	0.18153294	-0.080007591	-0.8761554	0.063805643	0.13119211	-1.0175199	0.19248525	0.00054936786	-0.86101647	0.085302659	0.044596458	-1.1065928	0.21185657	-0.028490585	-0.93451108	0.045064901	0.070473224	-0.75774053	0.42804643	-0.11327513	-0.78940166	0.44203191	0.16643093	-0.7476282	0.42007115	0.0085959666	-0.82611923	0.43480638	0.040510185	-0.87808458	0.80829357	-0.11685481	-0.86524165	0.81058346	0.22260337	-0.80442692	0.85566051	-0.07646047	-0.77438932	0.86459682	0.16890451	-0.97549895	0.93745793	0.066448991	-0.85884839	1.3431604	-0.12800667	-0.83314334	1.3303521	0.23231222	-0.92069098	1.3772773	0.057281402	-0.89324738	1.0228595	-0.18113734	-0.9214888	1.0272931	0.30753648	-0.71423938	0.8509031	-0.18712067	-0.77028934	0.83374558	0.33031351
76	0.3	-0.95943004	0.068277685	-0.059857181	-0.7436925	0.035524194	0.10221533	-1.0213762	0.17844173	-0.079192806	-0.87610014	0.06413287	0.13116982	-1.0019596	0.18993407	0.0015167065	-0.86085294	0.085633183	0.044645893	-1.091354	0.20648268	-0.02670021	-0.93410489	0.045615931	0.070033469	-0.74693861	0.43136322	-0.11231308	-0.78870211	0.44228009	0.16613788	-0.73738264	0.42415243	0.009703212	-0.82622996	0.43533776	0.040340516	-0.87171758	0.81055176	-0.11698183	-0.86070148	0.81150539	0.22250579	-0.79838503	0.85787968	-0.075888265	-0.76917599	0.86607574	0.16931684	-0.97017237	0.93898851	0.065769313	-0.8536338	1.3447556	-0.1279394	-0.82731336	1.3322122	0.23220454	-0.9151832	1.3787919	0.057376895	-0.89041846	1.0248333	-0.18085081	-0.91436512	1.0289851	0.3088518	-0.71304015	0.8512664	-0.18799679	-0.76067471	0.83693073	0.33015625
77	0.304	-0.93961975	0.067609068	-0.059625829	-0.74368565	0.035517974	0.10232642	-1.0051484	0.17534472	-0.078309653	-0.87608469	0.064448239	0.13109544	-0.98713041	0.18710086	0.0027752301	-0.86067086	0.086007048	0.044682194	-1.0759189	0.20085963	-0.025073147	-0.93383041	0.046097836	0.069647262	-0.73627413	0.43465554	-0.11131339	-0.78801286	0.44254234	0.16586798	-0.7274122	0.42816377	0.010833977	-0.82600705	0.43606445	0.04022529	-0.86547723	0.81279927	-0.11710035	-0.85637104	0.81232132	0.22257819	-0.79245426	0.86004494	-0.075358286	-0.76402893	0.86745759	0.16969831	-0.96485253	0.94045996	0.065060312	-0.84840923	1.3462831	-0.12787347	-0.82151118	1.3340146	0.23208255	-0.90968934	1.3802431	0.057439161	-0.88757713	1.026769	-0.18057343	-0.90700067	1.0306087	0.30987753	-0.71184537	0.85159842	-0.18886494	-0.75109707	0.84011641	0.32998279
78	0.308	-0.91982604	0.067003167	-0.059417354	-0.74365477	0.035527154	0.10244131	-0.98891776	0.17226253	-0.077424946	-0.87608056	0.064782637	0.13097976	-0.97234823	0.18409905	0.0041347345	-0.86039173	0.086452881	0.044698022	-1.0603828	0.19508496	-0.023727172	-0.93385211	0.046465947	0.069368962	-0.72581075	0.43791224	-0.11029921	-0.78733259	0.44281825	0.16562901	-0.71775124	0.43207024	0.011965029	-0.82550903	0.43690915	0.040122326	-0.85920931	0.8150116	-0.1171443	-0.85214946	0.81304961	0.22280426	-0.78654676	0.86216864	-0.074843501	-0.75890113	0.86875319	0.17005868	-0.95949121	0.94190386	0.064383929	-0.8431797	1.347742	-0.12780459	-0.81573354	1.335749	0.23195032	-0.90422747	1.3816362	0.057420528	-0.88471809	1.0286632	-0.18030148	-0.89963127	1.0321602	0.31076962	-0.71064918	0.85190168	-0.18972363	-0.74147036	0.8432884	0.32978609
79	0.312	-0.90005998	0.066429693	-0.059218138	-0.74359657	0.035546236	0.10256314	-0.97260782	0.16916982	-0.076566974	-0.87605541	0.065151484	0.1308304	-0.95702867	0.18107318	0.0053521665	-0.85995891	0.086965476	0.044680245	-1.0447309	0.18927887	-0.022698714	-0.93421056	0.046724804	0.069182338	-0.71562013	0.44112411	-0.1092794	-0.7866598	0.44310725	0.16542972	-0.70836609	0.43588683	0.013092363	-0.82491638	0.43773703	0.039987448	-0.85288442	0.81719032	-0.1171565	-0.84793339	0.81372098	0.2231593	-0.7805766	0.86425071	-0.074321056	-0.75376181	0.86996233	0.17039525	-0.95400377	0.9433703	0.063785359	-0.83794679	1.3491327	-0.12774372	-0.80999243	1.3374121	0.23181943	-0.89881029	1.3829737	0.057284282	-0.88183925	1.0305143	-0.18003568	-0.89239444	1.0336148	0.31163393	-0.70946095	0.85217027	-0.19058781	-0.73178497	0.84643926	0.32956545
80	0.316	-0.880203	0.065876302	-0.059003296	-0.7434819	0.035591373	0.10269202	-0.95621746	0.1660219	-0.075724944	-0.87599407	0.065556569	0.13064398	-0.94110606	0.17805497	0.0063641793	-0.85939986	0.0875088	0.04461596	-1.0288811	0.18350516	-0.02196302	-0.93463637	0.046995638	0.068947508	-0.70570402	0.44428194	-0.10824635	-0.78599371	0.44340869	0.16527961	-0.69921168	0.43964126	0.014211045	-0.82432737	0.43845172	0.039839845	-0.84654745	0.8193472	-0.11717987	-0.84362442	0.81436445	0.22362018	-0.77447687	0.86628132	-0.073768593	-0.74858196	0.87107852	0.17069952	-0.9482841	0.94490209	0.063268079	-0.83270637	1.3504526	-0.1277044	-0.80429458	1.3390049	0.23169727	-0.89342291	1.3842524	0.057070396	-0.87893953	1.0323161	-0.1797814	-0.88527324	1.0349717	0.31250235	-0.70828924	0.85238777	-0.1914663	-0.72213842	0.84956919	0.32932634
81	0.32	-0.86016254	0.065357227	-0.058763835	-0.7432674	0.035689995	0.10282588	-0.93974219	0.16279049	-0.074904159	-0.87591066	0.065986754	0.13040228	-0.92480613	0.17499682	0.0072327572	-0.85886259	0.088021427	0.044490344	-1.0127947	0.17774651	-0.021343111	-0.93478315	0.047399509	0.068493169	-0.69598833	0.4473797	-0.10719798	-0.78533598	0.44372226	0.16518596	-0.6902991	0.44331689	0.015299852	-0.8237487	0.43907105	0.039690643	-0.8402086	0.82147101	-0.11716391	-0.83912408	0.81500569	0.2241683	-0.76826991	0.86824182	-0.073188177	-0.74334417	0.87209919	0.17097563	-0.94231801	0.9464719	0.062759163	-0.82745514	1.3516943	-0.12769033	-0.79862944	1.3405293	0.23157755	-0.88803105	1.3854665	0.056880078	-0.87601775	1.0340571	-0.17954037	-0.87819582	1.0362532	0.31335628	-0.70712049	0.85254225	-0.19234731	-0.71259302	0.85267142	0.3290654
